<svg xmlns="http://www.w3.org/2000/svg" xmlns:xlink="http://www.w3.org/1999/xlink" version="1.1" baseProfile="tiny" x="0px" y="0px" width="100px" height="100px" viewBox="0 0 100 100" xml:space="preserve" preserveAspectRatio="xMinYMin meet">
<g id="Captions">
</g>
<g id="Your_Icon">
	<path fill="#000000" d="M68,67h14c5.059,0,6-1.021,6-5.963v-42C88,14.217,86.82,13,82,13H18c-4.941,0-6,1.096-6,6.037v41.941   C12,65.916,12.82,67,18,67h26c0,0,19.123,17.529,21.5,19.643c0.844,0.75,2.562,0.363,2.5-1.605V67z M24,49h42v6H24V49z M24,37h26v6   H24V37z M24,25h52v6H24V25z"/>
</g>
</svg>