<svg xmlns="http://www.w3.org/2000/svg" xmlns:xlink="http://www.w3.org/1999/xlink" version="1.1" id="Your_Icon" x="0px" y="0px" width="100px" height="100px" viewBox="0 0 100 100" style="enable-background:new 0 0 100 100;" xml:space="preserve" preserveAspectRatio="xMinYMin meet">
<path style="fill:#010101;" d="M92.921,32.531c-0.546,1.334-1.693,2.335-3.076,2.693l-29.416,7.658  c-0.977,0.256-1.981,0.175-2.868-0.195c-0.644-0.265-1.221-0.68-1.697-1.225c-1.127-1.307-1.416-3.146-0.753-4.745l3.036-7.328  c-24.805-9.615-45.114-1.697-53.98,15.987C11.1,6.933,41.394,1.968,66.113,10.155l3.027-7.316c0.668-1.604,2.173-2.697,3.891-2.828  c0.72-0.049,1.424,0.069,2.066,0.334c0.892,0.37,1.66,1.021,2.165,1.892l15.385,26.213C93.376,29.687,93.474,31.2,92.921,32.531z   M41.854,70.613l3.036-7.328c0.664-1.6,0.375-3.438-0.757-4.745c-0.472-0.545-1.05-0.96-1.693-1.229  c-0.887-0.366-1.896-0.447-2.869-0.191l-29.415,7.658c-1.383,0.358-2.531,1.359-3.08,2.689c-0.549,1.331-0.452,2.849,0.272,4.085  l15.385,26.213c0.508,0.871,1.277,1.522,2.168,1.893c0.639,0.265,1.343,0.383,2.063,0.33c1.721-0.127,3.227-1.221,3.89-2.824  l3.032-7.313C58.602,98.03,88.9,93.066,95.834,54.626C86.972,72.314,66.659,80.229,41.854,70.613z"/>
</svg>