<svg xmlns="http://www.w3.org/2000/svg" xmlns:xlink="http://www.w3.org/1999/xlink" version="1.1" id="Layer_1" x="0px" y="0px" width="100px" height="100px" viewBox="0 0 100 100" enable-background="new 0 0 100 100" xml:space="preserve">
<path fill-rule="evenodd" clip-rule="evenodd" fill="#000000" d="M70.564,57.797c0.538-0.797,0.988-1.616,1.339-2.445  c0.374-0.885,0.663-1.809,0.855-2.76c0.18-0.892,0.275-1.861,0.275-2.902c0-1.04-0.096-2.009-0.275-2.901  c-0.192-0.951-0.481-1.875-0.855-2.76c-0.351-0.829-0.801-1.648-1.339-2.445c-0.517-0.769-1.116-1.493-1.785-2.162  c-1.332-1.332-2.895-2.4-4.608-3.125c-1.758-0.741-2.582-2.766-1.842-4.523c0.74-1.758,2.766-2.583,4.524-1.843  c2.59,1.096,4.905,2.663,6.829,4.587c0.966,0.965,1.847,2.035,2.626,3.191c0.748,1.109,1.407,2.327,1.961,3.639  c0.549,1.296,0.975,2.663,1.262,4.087c0.286,1.421,0.437,2.846,0.437,4.256c0,1.411-0.15,2.836-0.437,4.258  c-0.287,1.423-0.713,2.79-1.262,4.086c-0.554,1.312-1.213,2.529-1.961,3.638c-0.219,0.325-0.445,0.644-0.68,0.953  c-0.809,1.071-0.966,0.67-1.884-0.249c-1.096-1.096-1.619-1.619-2.714-2.714C70.203,58.833,69.931,58.74,70.564,57.797z"/>
<path fill-rule="evenodd" clip-rule="evenodd" fill="#000000" d="M80.397,67.533c0.736-0.845,1.417-1.73,2.04-2.653  c0.989-1.47,1.829-3.006,2.5-4.591c0.7-1.653,1.239-3.384,1.601-5.173c0.346-1.709,0.526-3.522,0.526-5.427  s-0.181-3.717-0.526-5.425c-0.361-1.789-0.9-3.52-1.601-5.173c-0.671-1.585-1.511-3.122-2.5-4.591  c-0.977-1.446-2.098-2.803-3.344-4.049c-1.246-1.247-2.603-2.368-4.049-3.343c-1.469-0.99-3.007-1.83-4.592-2.501  c-1.758-0.74-2.582-2.766-1.842-4.524s2.767-2.583,4.523-1.842c2.067,0.875,4.003,1.924,5.784,3.125  c1.836,1.238,3.536,2.64,5.079,4.182c1.542,1.543,2.944,3.244,4.182,5.08c1.202,1.78,2.25,3.716,3.124,5.783  c0.874,2.065,1.551,4.24,2.008,6.501C93.763,45.146,94,47.415,94,49.689c0,2.275-0.237,4.545-0.688,6.781  c-0.457,2.261-1.134,4.436-2.008,6.501c-0.874,2.066-1.923,4.001-3.124,5.782c-0.875,1.298-1.832,2.527-2.861,3.682  c-0.813,0.911-0.86,0.651-1.708-0.195c-1.101-1.102-1.9-1.9-3.001-3.001C79.741,68.371,79.604,68.443,80.397,67.533z"/>
<path fill-rule="evenodd" clip-rule="evenodd" fill="#000000" d="M20.096,32.725h-8.13C8.685,32.725,6,35.41,6,38.691v22.484  c0,3.28,2.685,5.966,5.966,5.966h13.441c6.906,5.195,13.81,10.393,20.713,15.591c3.148,2.368,6.793,1.988,6.793-2.12  c0-4.925,0-9.442,0-14.365c0-1.745-0.261-2.222-1.506-3.468c-9.727-9.727-19.453-19.454-29.18-29.181  C21.37,32.739,21.311,32.725,20.096,32.725z"/>
<path fill-rule="evenodd" clip-rule="evenodd" fill="#000000" d="M12.589,12.588L12.589,12.588c2.116-2.115,5.577-2.115,7.692,0  l67.13,67.131c2.116,2.115,2.116,5.576,0,7.691l0,0c-2.115,2.116-5.576,2.116-7.691,0l-67.131-67.13  C10.474,18.165,10.474,14.704,12.589,12.588z"/>
<path fill-rule="evenodd" clip-rule="evenodd" fill="#000000" d="M46.121,17.134c-2.872,2.163-5.744,4.325-8.617,6.487  c-1.585,1.193-0.805,1.707,0.599,3.11c4.504,4.506,9.009,9.011,13.514,13.516c1.004,1.016,1.297,0.896,1.297-0.191v-20.8  C52.914,15.147,49.269,14.766,46.121,17.134z"/>
</svg>