<svg xmlns="http://www.w3.org/2000/svg" xmlns:xlink="http://www.w3.org/1999/xlink" version="1.1" id="Your_Icon" x="0px" y="0px" width="100px" height="100px" viewBox="0 0 100 100" enable-background="new 0 0 100 100" xml:space="preserve">
<g>
	<g>
		<g>
			<g>
			</g>
		</g>
		<g>
		</g>
	</g>
</g>
<path d="M45.723,49.898c0-1.425-11.667-11.005-11.667-11.005s5.92-11.347,16.502-19.201l-0.022-0.021c0,0,9.352-7.603,21.521-7.277  c0,0-25.748-20.501-53.087,11.918c0,0-10.67-13.166-12.001-11.835C5.641,13.806,4.045,55.891,5.72,57.562  C7.39,59.241,45.723,51.322,45.723,49.898z M57.382,30.649h26.677c0,0-1.617-7.342-7.664-14.124  c-13.291,0.132-22.066,7.356-22.075,7.362C55.633,25.718,56.895,28.035,57.382,30.649z M42.616,69.146H15.941  c0,0,1.617,7.339,7.664,14.124c13.289-0.136,22.065-7.356,22.074-7.365C44.365,74.077,43.104,71.757,42.616,69.146z M94.28,42.226  c-1.67-1.671-40.005,6.248-40.005,7.673c0,1.419,11.669,10.993,11.669,10.993s-5.921,11.352-16.503,19.206l0.021,0.021  c0,0-9.352,7.608-21.521,7.279c0,0,25.748,20.5,53.087-11.914c0,0,10.672,13.157,12.003,11.83  C94.359,85.986,95.953,43.894,94.28,42.226z"/>
</svg>